HIERARCHY
ROOT hip
{
	OFFSET 0.000000 0.000000 0.000000 
	CHANNELS 6 Xposition Yposition Zposition Xrotation Zrotation Yrotation
	JOINT abdomen
	{
		OFFSET 0.000000 3.402643 0.000000 
		CHANNELS 3 Xrotation Zrotation Yrotation
		JOINT chest
		{
			OFFSET 0.000000 8.438565 -0.680529 
			CHANNELS 3 Xrotation Zrotation Yrotation
			JOINT neck
			{
				OFFSET 0.000000 10.207942 -0.272212 
				CHANNELS 3 Xrotation Zrotation Yrotation
				JOINT head
				{
					OFFSET 0.000000 3.130431 0.000000 
					CHANNELS 3 Xrotation Zrotation Yrotation
					End Site
					{
						OFFSET 0.000000 3.130435 0.000000 
					}
				}
			}
			JOINT lCollar
			{
				OFFSET 3.470700 6.669187 -0.816635 
				CHANNELS 3 Yrotation Zrotation Xrotation
				JOINT lShldr
				{
					OFFSET 3.198488 0.000000 0.000000 
					CHANNELS 3 Zrotation Yrotation Xrotation
					JOINT lForeArm
					{
						OFFSET 10.139888 0.000000 0.000000 
						CHANNELS 3 Yrotation Zrotation Xrotation
						JOINT lHand
						{
							OFFSET 8.370511 0.000000 0.000000 
							CHANNELS 3 Zrotation Yrotation Xrotation
							End Site
							{
								OFFSET 4.083176 0.000000 0.000000 
							}
						}
					}
				}
			}
			JOINT rCollar
			{
				OFFSET -3.470700 6.669187 -0.816635 
				CHANNELS 3 Yrotation Zrotation Xrotation
				JOINT rShldr
				{
					OFFSET -3.198488 0.000000 0.000000 
					CHANNELS 3 Zrotation Yrotation Xrotation
					JOINT rForeArm
					{
						OFFSET -10.139888 0.000000 0.000000 
						CHANNELS 3 Yrotation Zrotation Xrotation
						JOINT rHand
						{
							OFFSET -8.370511 0.000000 0.000000 
							CHANNELS 3 Zrotation Yrotation Xrotation
							End Site
							{
								OFFSET -4.083176 0.000000 0.000000 
							}
						}
					}
				}
			}
		}
	}
	JOINT lThigh
	{
		OFFSET 5.308129 -1.633274 1.361059 
		CHANNELS 3 Xrotation Zrotation Yrotation
		JOINT lShin
		{
			OFFSET -2.041588 -20.007561 0.000000 
			CHANNELS 3 Xrotation Zrotation Yrotation
			JOINT lFoot
			{
				OFFSET 0.000000 -19.190928 -1.224953 
				CHANNELS 3 Xrotation Yrotation Zrotation
				End Site
				{
					OFFSET 0.000000 -2.449906 4.627600 
				}
			}
		}
	}
	JOINT rThigh
	{
		OFFSET -5.308129 -1.633274 1.361059 
		CHANNELS 3 Xrotation Zrotation Yrotation
		JOINT rShin
		{
			OFFSET 2.041588 -20.007561 0.000000 
			CHANNELS 3 Xrotation Zrotation Yrotation
			JOINT rFoot
			{
				OFFSET 0.000000 -19.190928 -1.224953 
				CHANNELS 3 Xrotation Yrotation Zrotation
				End Site
				{
					OFFSET 0.000000 -2.449906 4.627600 
				}
			}
		}
	}
}
MOTION
Frames: 15
Frame Time: 0.033333
-1.130793 49.350056 -1.207034 -1.913349 -0.029288 -1.396489 0.000000 0.000000 0.000000 0.756446 0.234316 -1.289052 7.323372 -0.195109 -2.617206 4.096117 1.366463 -1.865635 -3.487426 4.127577 1.358493 -14.902514 13.998783 -15.013041 -22.974905 -6.530707 23.123074 5.863894 4.692424 -3.443569 2.128379 -2.480643 1.328526 17.001282 -24.092741 -7.142320 20.490074 0.470043 20.552427 3.524957 2.131881 -3.261868 -0.479049 9.030958 3.946510 12.348731 -2.510051 7.297972 -8.348250 0.536718 -7.537155 -2.117436 -4.117064 -2.219970 15.870893 4.400914 -5.599948 -11.706450 -0.088693 0.683641 
-1.350411 49.344501 -1.241498 -1.833358 -0.097622 -1.513686 0.000000 0.000000 0.000000 0.937260 0.351420 -1.630889 7.262067 -0.117023 -3.037123 4.126716 1.522516 -1.992781 -4.112504 3.300125 1.522139 -18.066605 14.483522 -13.925355 -26.620449 -6.475639 25.950926 5.213388 5.070914 -3.446815 2.055038 -1.295901 1.454669 19.141094 -25.571352 -6.258213 24.876537 0.329234 22.706717 4.953581 2.503108 -3.162026 -0.410521 9.359201 4.095642 12.085113 -2.490507 7.101406 -8.171023 0.576510 -7.793959 -2.215538 -3.835178 -2.132262 15.880996 4.518363 -5.380192 -11.727942 -0.048699 0.334223 
-1.594566 49.325108 -1.258374 -1.695225 -0.146430 -1.562520 0.000000 0.000000 0.000000 1.007822 0.497737 -2.021493 7.219857 -0.048732 -3.593757 4.342227 1.610132 -2.207806 -4.950571 2.362726 1.596729 -21.187244 14.957944 -11.826322 -30.187487 -6.693590 28.905333 5.620657 5.117705 -3.437493 1.972495 0.031902 1.493255 21.366024 -27.060398 -5.360340 29.136753 0.025350 25.609966 6.337650 3.144563 -3.056355 -0.449791 9.766466 4.258403 11.968019 -2.422051 6.792850 -8.070208 0.572196 -8.137039 -2.358876 -3.567060 -2.057053 16.027216 4.625856 -4.897444 -11.914030 -0.008671 -0.047864 
-1.856229 49.302219 -1.288283 -1.314119 -0.136653 -1.777362 0.000000 0.000000 0.000000 0.891970 0.614685 -2.421945 7.184769 -0.097403 -4.130871 4.384528 2.009788 -2.511303 -5.636397 1.494398 1.487483 -24.466522 15.299347 -9.250877 -33.740921 -6.924253 32.081783 5.798875 5.080747 -3.436676 1.764177 0.989329 1.356905 24.250961 -28.277435 -4.522651 33.347698 -0.228429 28.709372 7.416782 3.306870 -2.972492 -0.664260 10.066117 4.341943 11.684623 -2.304802 6.586093 -7.917541 0.583519 -8.492828 -2.898325 -3.337114 -1.942131 16.315241 4.738193 -4.704715 -12.098415 0.041843 -0.446769 
-2.149331 49.289753 -1.273042 -1.193693 -0.204942 -2.089865 0.000000 0.000000 0.000000 0.978563 0.731484 -2.900528 7.146838 0.019466 -4.697265 5.018331 2.331457 -2.668177 -6.165158 1.101109 1.563496 -28.670645 15.276237 -7.447820 -37.236828 -6.685205 36.718819 5.384294 5.141490 -3.444803 1.418706 2.310648 1.396873 26.941145 -29.142006 -3.300122 37.285934 -0.172581 29.837027 7.585863 3.257485 -2.970812 -0.459004 10.496604 4.599372 11.252580 -2.284364 6.691418 -7.655195 0.618169 -8.909956 -2.936812 -3.014690 -1.892173 16.291874 4.909375 -4.012719 -12.181268 0.070243 -0.987606 
-2.457557 49.270111 -1.245081 -1.111626 -0.253649 -2.578186 0.000000 0.000000 0.000000 1.061326 0.877369 -3.389022 7.181836 0.058319 -5.546872 5.629994 2.457412 -3.069027 -7.012154 0.258829 1.628401 -31.652462 15.512439 -3.633198 -40.639252 -7.025892 39.136040 6.334949 5.694924 -3.399322 1.228084 3.664278 1.418389 29.655619 -30.145124 -1.584472 41.526203 -0.033294 31.895214 8.439176 2.343549 -2.997038 -0.146740 10.906738 4.879922 10.795589 -2.294746 6.864144 -7.443027 0.648048 -9.297736 -3.042776 -2.681723 -1.747131 16.379078 5.039241 -3.511876 -12.301627 0.152288 -1.490759 
-2.803160 49.233494 -1.192375 -0.877197 -0.370485 -3.281371 0.000000 0.000000 0.000000 1.011353 1.110910 -3.740856 7.122029 0.145536 -6.523441 6.382621 2.338910 -3.684547 -7.194247 0.138863 1.608340 -35.260952 14.617677 0.691632 -43.697575 -7.362810 42.426815 7.571369 6.467722 -3.344469 0.825635 4.825123 1.332297 33.122116 -30.819433 -0.585306 45.273808 -0.132720 33.954281 8.354611 1.559517 -3.076856 0.058362 11.493961 5.270346 10.514734 -2.305088 6.938696 -7.367409 0.636178 -9.750425 -3.308687 -2.244805 -1.646653 16.594070 5.192456 -2.753730 -12.493896 0.196624 -2.089999 
-3.178787 49.203888 -1.163065 -0.505930 -0.262801 -4.658288 0.000000 0.000000 0.000000 0.801917 1.130194 -3.897073 7.404858 0.058143 -7.109371 6.501712 2.775481 -4.272492 -7.539851 -0.459360 1.403793 -39.186260 14.568722 3.534788 -47.166412 -6.979797 46.225788 7.951977 5.766396 -3.358242 0.574671 5.451999 1.147547 37.540932 -31.113407 0.300045 48.366390 -0.125216 35.082645 7.648137 0.887530 -3.151906 0.585025 11.967546 5.845098 9.556651 -2.636524 7.753521 -6.965975 0.661573 -10.187383 -3.753759 -1.998739 -1.465772 16.896137 5.231483 -0.785917 -12.668270 0.302872 -2.876133 
-3.534580 49.143700 -1.145043 0.109146 0.077710 -5.908198 0.000000 0.000000 0.000000 0.487960 1.032180 -4.346404 7.552502 -0.096727 -7.910178 6.540254 3.172441 -4.802148 -8.195750 -0.977793 1.092396 -43.034592 14.989272 6.961187 -51.119476 -6.442161 49.294289 9.016113 5.910967 -3.335512 0.282152 6.264387 0.815284 41.462212 -31.401789 1.951158 51.084888 0.233141 35.534664 7.141320 -0.192197 -3.261964 0.702477 12.225371 6.204322 8.980107 -2.890007 8.553881 -6.787990 0.674624 -10.656738 -4.744637 -2.108734 -1.599826 17.815248 5.476544 1.194488 -13.097142 0.402067 -3.734290 
-4.053889 49.045792 -0.974103 -0.344136 -0.542875 -6.933928 0.000000 0.000000 0.000000 0.902069 1.420439 -4.962314 8.080242 0.164088 -8.740253 6.558257 3.277582 -5.184042 -8.830994 -1.122911 1.505611 -46.924831 15.254833 10.288636 -55.160015 -5.723387 51.039536 10.533743 5.577527 -3.328381 -0.623002 7.371460 1.200300 45.529938 -31.254398 3.789346 53.229530 0.680430 37.147587 6.860415 -1.436691 -3.368054 1.590034 13.715544 7.657449 9.977644 -3.213136 7.685926 -7.711924 0.768142 -11.316573 -4.022413 -1.093475 -1.307830 18.070406 5.711132 2.591856 -13.438255 0.583649 -4.736204 
-4.523940 48.955170 -0.885391 -0.351931 -0.463793 -8.340121 0.000000 0.000000 0.000000 1.069929 1.380496 -5.431165 8.312415 0.048185 -9.306638 6.829951 3.480669 -5.390470 -9.186159 -1.613312 1.639494 -50.679283 15.534068 12.632985 -59.045696 -4.760509 52.680138 10.941597 3.288859 -3.497700 -1.320615 7.920365 1.360062 50.052597 -31.232878 5.111563 54.583542 1.035587 38.270790 7.575871 -1.477176 -3.357130 2.419046 14.367173 8.850049 9.901731 -3.677413 8.574677 -7.801671 0.838793 -11.865457 -4.201809 -0.809252 -1.321011 18.888279 5.925631 4.962199 -13.815476 0.730893 -5.911021 
-5.013362 48.845497 -0.805064 -0.473368 -0.433262 -9.629219 0.000000 0.000000 0.000000 1.341073 1.389114 -5.890249 8.734174 -0.134730 -9.785197 6.478624 4.003897 -5.657986 -9.544661 -2.141399 1.869381 -54.150654 15.707950 14.107377 -62.485733 -3.663995 55.330238 9.621338 0.125747 -3.722670 -1.788600 8.459733 1.598632 54.361000 -31.685013 6.325800 55.351067 1.452533 39.235065 8.577429 -1.396407 -3.329945 3.368199 14.978087 10.057711 9.852618 -3.950278 8.549065 -8.102234 0.878058 -12.403894 -4.348825 -0.507065 -1.361963 19.867609 6.151040 6.709132 -14.251758 0.891133 -6.950374 
-5.520829 48.808033 -0.685499 -0.915857 -0.306547 -11.201374 0.000000 0.000000 0.000000 1.878791 1.242913 -6.104828 9.099021 -0.375129 -9.951404 6.572704 4.304864 -5.699027 -9.774283 -2.890368 2.312331 -57.280178 15.825565 14.502396 -65.118744 -2.726136 58.027470 7.690693 -2.936762 -3.839442 -2.157886 8.932777 2.063557 57.902977 -32.045544 7.924281 55.407368 2.142028 39.711761 9.863116 -1.683263 -3.333346 4.811755 15.014679 11.070580 9.561456 -3.843805 9.581789 -7.751467 0.891755 -13.177720 -3.743388 -0.233987 -1.293710 19.998014 6.161661 8.452229 -14.290369 1.018272 -7.903104 
-5.966645 48.798237 -0.553312 -1.319018 0.133397 -12.656284 0.000000 0.000000 0.000000 2.309058 0.921994 -6.377696 9.518048 -0.692191 -10.117974 6.548487 4.480080 -5.661556 -10.377816 -3.742153 2.607827 -59.799992 16.559280 14.069252 -67.236320 -2.065932 58.057106 5.611401 -3.388669 -3.730698 -2.331914 8.992936 2.409880 61.019714 -32.587879 9.522178 54.839016 2.932644 40.111889 12.256552 -1.159407 -3.228603 2.547783 14.921061 10.869589 15.348336 -3.545619 13.023775 -7.354368 0.957325 -14.651117 -3.265980 -0.312075 -1.263463 20.130554 5.995209 9.711627 -14.364117 1.110575 -8.579271 
-6.365101 48.793621 -0.372805 -1.959836 0.558035 -14.414696 0.000000 0.000000 0.000000 2.825841 0.582345 -6.347922 10.179539 -1.029384 -9.894300 6.270749 4.811376 -5.556035 -10.294977 -4.127709 3.023023 -62.137241 16.823725 13.375842 -68.213333 -1.694075 58.154655 4.986262 -4.535249 -3.736109 -2.309222 8.832023 2.873704 63.767780 -33.118176 10.640999 53.723301 3.614105 41.039112 14.364992 -0.945309 -3.164288 0.311174 14.429523 10.537390 20.677494 -3.457370 17.567877 -6.173321 0.905408 -16.104641 -2.443532 -0.486692 -1.263500 20.256098 5.741260 11.597105 -14.490808 1.223529 -9.300492 
